<svg width="128" height="128" xmlns="http://www.w3.org/2000/svg">

 <g>
  <title>background</title>
  <rect fill="none" id="canvas_background" height="402" width="582" y="-1" x="-1"/>
 </g>
 <g>
  <title>Layer 1</title>
  <path fill="#ffffff" id="svg_1" d="m64.280998,84.291c-15.539997,0 -28.183998,-12.642998 -28.183998,-28.184002l0,-13.910999c0,-15.542 12.644001,-28.185999 28.183998,-28.185999c15.542,0 28.186005,12.643999 28.186005,28.185999l0,13.910999c0,15.541004 -12.644005,28.184002 -28.186005,28.184002zm0,-66.281c-13.334999,0 -24.183998,10.85 -24.183998,24.185999l0,13.910999c0,13.334003 10.848999,24.184002 24.183998,24.184002c13.335999,0 24.186005,-10.849998 24.186005,-24.184002l0,-13.910999c0,-13.335999 -10.850006,-24.185999 -24.186005,-24.185999z"/>
  <path fill="#ffffff" id="svg_2" d="m102.332001,114.010002l-76.51,0c-6.518,0 -11.819,-5.303001 -11.819,-11.82l0,-8.734001c0,-3.857002 1.953,-9.027 11.26,-11.737999l11.443001,-3.167999c1.066998,-0.291 2.167,0.329994 2.460999,1.394997s-0.329998,2.166 -1.395,2.460999l-11.417,3.160004c-8.352999,2.433998 -8.352999,6.541 -8.352999,7.890999l0,8.734001c0,4.312996 3.507999,7.82 7.818998,7.82l76.510002,0c4.311996,0 7.819,-3.508003 7.819,-7.82l0,-8.734001c0,-3.642998 -2.816002,-6.299004 -8.372002,-7.896004l-10.891998,-3.044998c-1.064003,-0.296997 -1.686005,-1.400002 -1.388,-2.464996c0.297997,-1.063004 1.398003,-1.689003 2.463997,-1.387001l10.905998,3.048996c9.326004,2.681999 11.281006,7.867004 11.281006,11.744003l0,8.734001c0.001999,6.515999 -5.299004,11.819 -11.817001,11.819z"/>
 </g>
</svg>